<mxfile host="65bd71144e" modified="2021-11-08T01:27:25.973Z" agent="5.0 (Windows NT 10.0; Win64; x64) AppleWebKit/537.36 (KHTML, like Gecko) Code/1.62.0 Chrome/91.0.4472.164 Electron/13.5.1 Safari/537.36" version="15.6.8" etag="8emHwwUJ6KaQnsUqSSya" type="embed" pages="4">
    <diagram id="giCwQEhyX9l9AkNv27Gq" name="S03-01 商品情報一覧">
        <mxGraphModel dx="747" dy="437" grid="1" gridSize="10" guides="1" tooltips="1" connect="1" arrows="1" fold="1" page="1" pageScale="1" pageWidth="827" pageHeight="1169" math="0" shadow="0">
            <root>
                <mxCell id="0"/>
                <mxCell id="1" parent="0"/>
            </root>
        </mxGraphModel>
    </diagram>
    <diagram id="i9D_LmfXx12iWns-8bgw" name="S03-02 商品情報新規登録">
        <mxGraphModel dx="747" dy="437" grid="1" gridSize="10" guides="1" tooltips="1" connect="1" arrows="1" fold="1" page="1" pageScale="1" pageWidth="827" pageHeight="1169" math="0" shadow="0">
            <root>
                <mxCell id="5waYa05MdNRa4GO8auUW-0"/>
                <mxCell id="5waYa05MdNRa4GO8auUW-1" style="locked=1;" parent="5waYa05MdNRa4GO8auUW-0"/>
                <mxCell id="uWSUC-EtuYWxjQPfYkuc-2" value="" style="rounded=0;whiteSpace=wrap;html=1;fillColor=default;strokeColor=default;fontColor=default;" vertex="1" parent="5waYa05MdNRa4GO8auUW-1">
                    <mxGeometry x="15" y="36.5" width="680" height="403.5" as="geometry"/>
                </mxCell>
                <mxCell id="uWSUC-EtuYWxjQPfYkuc-3" value="商品情報新規登録" style="text;html=1;strokeColor=none;fillColor=none;align=center;verticalAlign=middle;whiteSpace=wrap;rounded=0;fontColor=default;fontStyle=1;fontSize=20;" vertex="1" parent="5waYa05MdNRa4GO8auUW-1">
                    <mxGeometry x="256.25" y="51" width="197.5" height="50" as="geometry"/>
                </mxCell>
                <mxCell id="uWSUC-EtuYWxjQPfYkuc-4" value="商品コード" style="text;html=1;strokeColor=none;fillColor=none;align=center;verticalAlign=middle;whiteSpace=wrap;rounded=0;" vertex="1" parent="5waYa05MdNRa4GO8auUW-1">
                    <mxGeometry x="52.5" y="115.5" width="66" height="30" as="geometry"/>
                </mxCell>
                <mxCell id="uWSUC-EtuYWxjQPfYkuc-5" value="" style="rounded=1;arcSize=9;fillColor=#F7F8F9;align=left;spacingLeft=5;strokeColor=#DEE1E6;html=1;strokeWidth=2;fontSize=12" vertex="1" parent="5waYa05MdNRa4GO8auUW-1">
                    <mxGeometry x="133" y="114" width="214" height="33" as="geometry"/>
                </mxCell>
                <mxCell id="uWSUC-EtuYWxjQPfYkuc-6" value="JANコード" style="text;html=1;strokeColor=none;fillColor=none;align=center;verticalAlign=middle;whiteSpace=wrap;rounded=0;" vertex="1" parent="5waYa05MdNRa4GO8auUW-1">
                    <mxGeometry x="54" y="158" width="63" height="30" as="geometry"/>
                </mxCell>
                <mxCell id="uWSUC-EtuYWxjQPfYkuc-7" value="" style="rounded=1;arcSize=9;fillColor=#F7F8F9;align=left;spacingLeft=5;strokeColor=#DEE1E6;html=1;strokeWidth=2;fontSize=12" vertex="1" parent="5waYa05MdNRa4GO8auUW-1">
                    <mxGeometry x="133" y="158" width="217" height="33" as="geometry"/>
                </mxCell>
                <mxCell id="uWSUC-EtuYWxjQPfYkuc-8" value="型番" style="text;html=1;strokeColor=none;fillColor=none;align=center;verticalAlign=middle;whiteSpace=wrap;rounded=0;" vertex="1" parent="5waYa05MdNRa4GO8auUW-1">
                    <mxGeometry x="44" y="205" width="83" height="30" as="geometry"/>
                </mxCell>
                <mxCell id="uWSUC-EtuYWxjQPfYkuc-9" value="" style="rounded=1;arcSize=9;fillColor=#F7F8F9;align=left;spacingLeft=5;strokeColor=#DEE1E6;html=1;strokeWidth=2;fontSize=12" vertex="1" parent="5waYa05MdNRa4GO8auUW-1">
                    <mxGeometry x="133" y="202" width="217" height="33" as="geometry"/>
                </mxCell>
                <mxCell id="uWSUC-EtuYWxjQPfYkuc-10" value="在庫場所" style="text;html=1;strokeColor=none;fillColor=none;align=center;verticalAlign=middle;whiteSpace=wrap;rounded=0;" vertex="1" parent="5waYa05MdNRa4GO8auUW-1">
                    <mxGeometry x="57" y="293" width="60" height="30" as="geometry"/>
                </mxCell>
                <mxCell id="uWSUC-EtuYWxjQPfYkuc-11" value="カテゴリ" style="text;html=1;strokeColor=none;fillColor=none;align=center;verticalAlign=middle;whiteSpace=wrap;rounded=0;" vertex="1" parent="5waYa05MdNRa4GO8auUW-1">
                    <mxGeometry x="57" y="248.5" width="60" height="30" as="geometry"/>
                </mxCell>
                <mxCell id="uWSUC-EtuYWxjQPfYkuc-12" value="" style="rounded=1;arcSize=9;fillColor=#ffffff;strokeColor=#4C9AFF;html=1;strokeWidth=2;spacingLeft=30;fontColor=#000000;align=left" vertex="1" parent="5waYa05MdNRa4GO8auUW-1">
                    <mxGeometry x="133" y="290" width="217" height="33" as="geometry"/>
                </mxCell>
                <mxCell id="uWSUC-EtuYWxjQPfYkuc-13" value="" style="shape=step;whiteSpace=wrap;html=1;rounded=0;strokeColor=none;strokeWidth=2;fillColor=#0A1E43;gradientColor=none;fontFamily=Verdana;fontSize=14;fontColor=#000000;align=left;direction=south;size=0.65;" vertex="1" parent="uWSUC-EtuYWxjQPfYkuc-12">
                    <mxGeometry x="1" y="0.5" width="10" height="7" relative="1" as="geometry">
                        <mxPoint x="-24" y="-3" as="offset"/>
                    </mxGeometry>
                </mxCell>
                <mxCell id="uWSUC-EtuYWxjQPfYkuc-14" value="" style="rounded=1;arcSize=9;fillColor=#ffffff;strokeColor=#4C9AFF;html=1;strokeWidth=2;spacingLeft=30;fontColor=#000000;align=left" vertex="1" parent="5waYa05MdNRa4GO8auUW-1">
                    <mxGeometry x="133" y="245.5" width="217" height="33" as="geometry"/>
                </mxCell>
                <mxCell id="uWSUC-EtuYWxjQPfYkuc-15" value="" style="shape=step;whiteSpace=wrap;html=1;rounded=0;strokeColor=none;strokeWidth=2;fillColor=#0A1E43;gradientColor=none;fontFamily=Verdana;fontSize=14;fontColor=#000000;align=left;direction=south;size=0.65;" vertex="1" parent="uWSUC-EtuYWxjQPfYkuc-14">
                    <mxGeometry x="1" y="0.5" width="10" height="7" relative="1" as="geometry">
                        <mxPoint x="-24" y="-3" as="offset"/>
                    </mxGeometry>
                </mxCell>
                <mxCell id="uWSUC-EtuYWxjQPfYkuc-16" value="商品状態" style="text;html=1;strokeColor=none;fillColor=none;align=center;verticalAlign=middle;whiteSpace=wrap;rounded=0;" vertex="1" parent="5waYa05MdNRa4GO8auUW-1">
                    <mxGeometry x="55.5" y="334" width="60" height="30" as="geometry"/>
                </mxCell>
                <mxCell id="uWSUC-EtuYWxjQPfYkuc-17" value="" style="rounded=1;arcSize=9;fillColor=#ffffff;strokeColor=#4C9AFF;html=1;strokeWidth=2;spacingLeft=30;fontColor=#000000;align=left" vertex="1" parent="5waYa05MdNRa4GO8auUW-1">
                    <mxGeometry x="133" y="334" width="217" height="33" as="geometry"/>
                </mxCell>
                <mxCell id="uWSUC-EtuYWxjQPfYkuc-18" value="" style="shape=step;whiteSpace=wrap;html=1;rounded=0;strokeColor=none;strokeWidth=2;fillColor=#0A1E43;gradientColor=none;fontFamily=Verdana;fontSize=14;fontColor=#000000;align=left;direction=south;size=0.65;" vertex="1" parent="uWSUC-EtuYWxjQPfYkuc-17">
                    <mxGeometry x="1" y="0.5" width="10" height="7" relative="1" as="geometry">
                        <mxPoint x="-24" y="-3" as="offset"/>
                    </mxGeometry>
                </mxCell>
                <mxCell id="uWSUC-EtuYWxjQPfYkuc-19" value="商品画像" style="text;html=1;strokeColor=none;fillColor=none;align=center;verticalAlign=middle;whiteSpace=wrap;rounded=0;" vertex="1" parent="5waYa05MdNRa4GO8auUW-1">
                    <mxGeometry x="370" y="114" width="66" height="30" as="geometry"/>
                </mxCell>
                <mxCell id="uWSUC-EtuYWxjQPfYkuc-20" value="画像" style="rounded=0;whiteSpace=wrap;html=1;fontSize=10;strokeColor=#666666;" vertex="1" parent="5waYa05MdNRa4GO8auUW-1">
                    <mxGeometry x="440" y="151" width="220" height="89" as="geometry"/>
                </mxCell>
                <mxCell id="uWSUC-EtuYWxjQPfYkuc-21" value="仕入価格" style="text;html=1;strokeColor=none;fillColor=none;align=center;verticalAlign=middle;whiteSpace=wrap;rounded=0;" vertex="1" parent="5waYa05MdNRa4GO8auUW-1">
                    <mxGeometry x="370" y="247" width="66" height="30" as="geometry"/>
                </mxCell>
                <mxCell id="uWSUC-EtuYWxjQPfYkuc-22" value="" style="rounded=1;arcSize=9;fillColor=#F7F8F9;align=left;spacingLeft=5;strokeColor=#DEE1E6;html=1;strokeWidth=2;fontSize=12" vertex="1" parent="5waYa05MdNRa4GO8auUW-1">
                    <mxGeometry x="441" y="249" width="108.5" height="33" as="geometry"/>
                </mxCell>
                <mxCell id="uWSUC-EtuYWxjQPfYkuc-23" value="円" style="text;html=1;strokeColor=none;fillColor=none;align=center;verticalAlign=middle;whiteSpace=wrap;rounded=0;" vertex="1" parent="5waYa05MdNRa4GO8auUW-1">
                    <mxGeometry x="560" y="248.5" width="30" height="30" as="geometry"/>
                </mxCell>
                <mxCell id="uWSUC-EtuYWxjQPfYkuc-24" value="&lt;span style=&quot;font-size: 19px&quot;&gt;登録&lt;/span&gt;" style="rounded=1;whiteSpace=wrap;html=1;align=center;labelBackgroundColor=none;fillColor=#d5e8d4;strokeColor=#82b366;" vertex="1" parent="5waYa05MdNRa4GO8auUW-1">
                    <mxGeometry x="290" y="390" width="130" height="34" as="geometry"/>
                </mxCell>
                <mxCell id="uWSUC-EtuYWxjQPfYkuc-0" value="名称未設定レイヤ" parent="5waYa05MdNRa4GO8auUW-0"/>
                <mxCell id="uWSUC-EtuYWxjQPfYkuc-1" value="名称未設定レイヤ" parent="5waYa05MdNRa4GO8auUW-0"/>
            </root>
        </mxGraphModel>
    </diagram>
    <diagram id="W6pb3q564Ygwx2bgVUcs" name="S03-03 商品情報詳細">
        &#xa;
        <mxGraphModel dx="814" dy="339" grid="1" gridSize="10" guides="1" tooltips="1" connect="1" arrows="1" fold="1" page="1" pageScale="1" pageWidth="827" pageHeight="1169" math="0" shadow="0">
            &#xa;
            <root>
                &#xa;
                <mxCell id="C3HflQgmAhdzuo5FPhKC-0"/>
                &#xa;
                <mxCell id="C3HflQgmAhdzuo5FPhKC-1" parent="C3HflQgmAhdzuo5FPhKC-0"/>
                &#xa;
            </root>
            &#xa;
        </mxGraphModel>
        &#xa;
    </diagram>
    <diagram id="7nTcUT3nNSXF52jksGTK" name="S03-04 商品情報編集">
        <mxGraphModel dx="1574" dy="1606" grid="1" gridSize="10" guides="1" tooltips="1" connect="1" arrows="1" fold="1" page="1" pageScale="1" pageWidth="827" pageHeight="1169" math="0" shadow="0">
            <root>
                <mxCell id="uz75ES0rGtJtOTAgmC8l-0"/>
                <mxCell id="uz75ES0rGtJtOTAgmC8l-1" style="locked=1;" parent="uz75ES0rGtJtOTAgmC8l-0"/>
                <mxCell id="d1XyCpcThGXRjQN6B1KP-2" value="" style="rounded=0;whiteSpace=wrap;html=1;fillColor=default;strokeColor=default;fontColor=default;" vertex="1" parent="uz75ES0rGtJtOTAgmC8l-1">
                    <mxGeometry x="25" y="46.5" width="680" height="403.5" as="geometry"/>
                </mxCell>
                <mxCell id="d1XyCpcThGXRjQN6B1KP-3" value="商品情報編集" style="text;html=1;strokeColor=none;fillColor=none;align=center;verticalAlign=middle;whiteSpace=wrap;rounded=0;fontColor=default;fontStyle=1;fontSize=20;" vertex="1" parent="uz75ES0rGtJtOTAgmC8l-1">
                    <mxGeometry x="266.25" y="61" width="197.5" height="50" as="geometry"/>
                </mxCell>
                <mxCell id="d1XyCpcThGXRjQN6B1KP-4" value="商品コード" style="text;html=1;strokeColor=none;fillColor=none;align=center;verticalAlign=middle;whiteSpace=wrap;rounded=0;" vertex="1" parent="uz75ES0rGtJtOTAgmC8l-1">
                    <mxGeometry x="62.5" y="125.5" width="66" height="30" as="geometry"/>
                </mxCell>
                <mxCell id="d1XyCpcThGXRjQN6B1KP-5" value="" style="rounded=1;arcSize=9;fillColor=#F7F8F9;align=left;spacingLeft=5;strokeColor=#DEE1E6;html=1;strokeWidth=2;fontSize=12" vertex="1" parent="uz75ES0rGtJtOTAgmC8l-1">
                    <mxGeometry x="143" y="124" width="214" height="33" as="geometry"/>
                </mxCell>
                <mxCell id="d1XyCpcThGXRjQN6B1KP-6" value="JANコード" style="text;html=1;strokeColor=none;fillColor=none;align=center;verticalAlign=middle;whiteSpace=wrap;rounded=0;" vertex="1" parent="uz75ES0rGtJtOTAgmC8l-1">
                    <mxGeometry x="64" y="168" width="63" height="30" as="geometry"/>
                </mxCell>
                <mxCell id="d1XyCpcThGXRjQN6B1KP-7" value="" style="rounded=1;arcSize=9;fillColor=#F7F8F9;align=left;spacingLeft=5;strokeColor=#DEE1E6;html=1;strokeWidth=2;fontSize=12" vertex="1" parent="uz75ES0rGtJtOTAgmC8l-1">
                    <mxGeometry x="143" y="168" width="217" height="33" as="geometry"/>
                </mxCell>
                <mxCell id="d1XyCpcThGXRjQN6B1KP-8" value="型番" style="text;html=1;strokeColor=none;fillColor=none;align=center;verticalAlign=middle;whiteSpace=wrap;rounded=0;" vertex="1" parent="uz75ES0rGtJtOTAgmC8l-1">
                    <mxGeometry x="47" y="215" width="100" height="30" as="geometry"/>
                </mxCell>
                <mxCell id="d1XyCpcThGXRjQN6B1KP-9" value="" style="rounded=1;arcSize=9;fillColor=#F7F8F9;align=left;spacingLeft=5;strokeColor=#DEE1E6;html=1;strokeWidth=2;fontSize=12" vertex="1" parent="uz75ES0rGtJtOTAgmC8l-1">
                    <mxGeometry x="143" y="212" width="217" height="33" as="geometry"/>
                </mxCell>
                <mxCell id="d1XyCpcThGXRjQN6B1KP-10" value="在庫場所" style="text;html=1;strokeColor=none;fillColor=none;align=center;verticalAlign=middle;whiteSpace=wrap;rounded=0;" vertex="1" parent="uz75ES0rGtJtOTAgmC8l-1">
                    <mxGeometry x="67" y="303" width="60" height="30" as="geometry"/>
                </mxCell>
                <mxCell id="d1XyCpcThGXRjQN6B1KP-11" value="カテゴリ" style="text;html=1;strokeColor=none;fillColor=none;align=center;verticalAlign=middle;whiteSpace=wrap;rounded=0;" vertex="1" parent="uz75ES0rGtJtOTAgmC8l-1">
                    <mxGeometry x="67" y="258.5" width="60" height="30" as="geometry"/>
                </mxCell>
                <mxCell id="d1XyCpcThGXRjQN6B1KP-12" value="" style="rounded=1;arcSize=9;fillColor=#ffffff;strokeColor=#4C9AFF;html=1;strokeWidth=2;spacingLeft=30;fontColor=#000000;align=left" vertex="1" parent="uz75ES0rGtJtOTAgmC8l-1">
                    <mxGeometry x="143" y="300" width="217" height="33" as="geometry"/>
                </mxCell>
                <mxCell id="d1XyCpcThGXRjQN6B1KP-13" value="" style="shape=step;whiteSpace=wrap;html=1;rounded=0;strokeColor=none;strokeWidth=2;fillColor=#0A1E43;gradientColor=none;fontFamily=Verdana;fontSize=14;fontColor=#000000;align=left;direction=south;size=0.65;" vertex="1" parent="d1XyCpcThGXRjQN6B1KP-12">
                    <mxGeometry x="1" y="0.5" width="10" height="7" relative="1" as="geometry">
                        <mxPoint x="-24" y="-3" as="offset"/>
                    </mxGeometry>
                </mxCell>
                <mxCell id="d1XyCpcThGXRjQN6B1KP-14" value="" style="rounded=1;arcSize=9;fillColor=#ffffff;strokeColor=#4C9AFF;html=1;strokeWidth=2;spacingLeft=30;fontColor=#000000;align=left" vertex="1" parent="uz75ES0rGtJtOTAgmC8l-1">
                    <mxGeometry x="143" y="255.5" width="217" height="33" as="geometry"/>
                </mxCell>
                <mxCell id="d1XyCpcThGXRjQN6B1KP-15" value="" style="shape=step;whiteSpace=wrap;html=1;rounded=0;strokeColor=none;strokeWidth=2;fillColor=#0A1E43;gradientColor=none;fontFamily=Verdana;fontSize=14;fontColor=#000000;align=left;direction=south;size=0.65;" vertex="1" parent="d1XyCpcThGXRjQN6B1KP-14">
                    <mxGeometry x="1" y="0.5" width="10" height="7" relative="1" as="geometry">
                        <mxPoint x="-24" y="-3" as="offset"/>
                    </mxGeometry>
                </mxCell>
                <mxCell id="d1XyCpcThGXRjQN6B1KP-16" value="商品状態" style="text;html=1;strokeColor=none;fillColor=none;align=center;verticalAlign=middle;whiteSpace=wrap;rounded=0;" vertex="1" parent="uz75ES0rGtJtOTAgmC8l-1">
                    <mxGeometry x="65.5" y="344" width="60" height="30" as="geometry"/>
                </mxCell>
                <mxCell id="d1XyCpcThGXRjQN6B1KP-17" value="" style="rounded=1;arcSize=9;fillColor=#ffffff;strokeColor=#4C9AFF;html=1;strokeWidth=2;spacingLeft=30;fontColor=#000000;align=left" vertex="1" parent="uz75ES0rGtJtOTAgmC8l-1">
                    <mxGeometry x="143" y="344" width="217" height="33" as="geometry"/>
                </mxCell>
                <mxCell id="d1XyCpcThGXRjQN6B1KP-18" value="" style="shape=step;whiteSpace=wrap;html=1;rounded=0;strokeColor=none;strokeWidth=2;fillColor=#0A1E43;gradientColor=none;fontFamily=Verdana;fontSize=14;fontColor=#000000;align=left;direction=south;size=0.65;" vertex="1" parent="d1XyCpcThGXRjQN6B1KP-17">
                    <mxGeometry x="1" y="0.5" width="10" height="7" relative="1" as="geometry">
                        <mxPoint x="-24" y="-3" as="offset"/>
                    </mxGeometry>
                </mxCell>
                <mxCell id="d1XyCpcThGXRjQN6B1KP-19" value="商品画像" style="text;html=1;strokeColor=none;fillColor=none;align=center;verticalAlign=middle;whiteSpace=wrap;rounded=0;" vertex="1" parent="uz75ES0rGtJtOTAgmC8l-1">
                    <mxGeometry x="380" y="124" width="66" height="30" as="geometry"/>
                </mxCell>
                <mxCell id="d1XyCpcThGXRjQN6B1KP-20" value="画像" style="rounded=0;whiteSpace=wrap;html=1;fontSize=10;strokeColor=#666666;" vertex="1" parent="uz75ES0rGtJtOTAgmC8l-1">
                    <mxGeometry x="450" y="156" width="220" height="94" as="geometry"/>
                </mxCell>
                <mxCell id="d1XyCpcThGXRjQN6B1KP-21" value="仕入価格" style="text;html=1;strokeColor=none;fillColor=none;align=center;verticalAlign=middle;whiteSpace=wrap;rounded=0;" vertex="1" parent="uz75ES0rGtJtOTAgmC8l-1">
                    <mxGeometry x="380" y="257" width="66" height="30" as="geometry"/>
                </mxCell>
                <mxCell id="d1XyCpcThGXRjQN6B1KP-22" value="" style="rounded=1;arcSize=9;fillColor=#F7F8F9;align=left;spacingLeft=5;strokeColor=#DEE1E6;html=1;strokeWidth=2;fontSize=12" vertex="1" parent="uz75ES0rGtJtOTAgmC8l-1">
                    <mxGeometry x="451.5" y="258.5" width="108.5" height="33" as="geometry"/>
                </mxCell>
                <mxCell id="d1XyCpcThGXRjQN6B1KP-23" value="円" style="text;html=1;strokeColor=none;fillColor=none;align=center;verticalAlign=middle;whiteSpace=wrap;rounded=0;" vertex="1" parent="uz75ES0rGtJtOTAgmC8l-1">
                    <mxGeometry x="570" y="258.5" width="30" height="30" as="geometry"/>
                </mxCell>
                <mxCell id="d1XyCpcThGXRjQN6B1KP-24" value="&lt;span style=&quot;font-size: 19px&quot;&gt;更新&lt;/span&gt;" style="rounded=1;whiteSpace=wrap;html=1;align=center;labelBackgroundColor=none;fillColor=#d5e8d4;strokeColor=#82b366;" vertex="1" parent="uz75ES0rGtJtOTAgmC8l-1">
                    <mxGeometry x="230" y="400" width="130" height="34" as="geometry"/>
                </mxCell>
                <mxCell id="d1XyCpcThGXRjQN6B1KP-25" value="①" style="whiteSpace=wrap;html=1;aspect=fixed;fontSize=21;" vertex="1" parent="uz75ES0rGtJtOTAgmC8l-1">
                    <mxGeometry x="344" y="-23" width="44" height="44" as="geometry"/>
                </mxCell>
                <mxCell id="d1XyCpcThGXRjQN6B1KP-26" value="" style="endArrow=none;html=1;rounded=0;fontSize=19;entryX=0.5;entryY=1;entryDx=0;entryDy=0;" edge="1" parent="uz75ES0rGtJtOTAgmC8l-1" target="d1XyCpcThGXRjQN6B1KP-25">
                    <mxGeometry width="50" height="50" relative="1" as="geometry">
                        <mxPoint x="366" y="71" as="sourcePoint"/>
                        <mxPoint x="538" y="107" as="targetPoint"/>
                    </mxGeometry>
                </mxCell>
                <mxCell id="d1XyCpcThGXRjQN6B1KP-27" value="⑪" style="whiteSpace=wrap;html=1;aspect=fixed;fontSize=21;" vertex="1" parent="uz75ES0rGtJtOTAgmC8l-1">
                    <mxGeometry x="730" y="140" width="44" height="44" as="geometry"/>
                </mxCell>
                <mxCell id="d1XyCpcThGXRjQN6B1KP-28" value="" style="endArrow=none;html=1;rounded=0;fontSize=19;entryX=0;entryY=0.5;entryDx=0;entryDy=0;" edge="1" parent="uz75ES0rGtJtOTAgmC8l-1" target="d1XyCpcThGXRjQN6B1KP-27">
                    <mxGeometry width="50" height="50" relative="1" as="geometry">
                        <mxPoint x="670" y="170" as="sourcePoint"/>
                        <mxPoint x="924" y="290" as="targetPoint"/>
                    </mxGeometry>
                </mxCell>
                <mxCell id="d1XyCpcThGXRjQN6B1KP-29" value="⑨" style="whiteSpace=wrap;html=1;aspect=fixed;fontSize=21;" vertex="1" parent="uz75ES0rGtJtOTAgmC8l-1">
                    <mxGeometry x="500" y="480" width="44" height="44" as="geometry"/>
                </mxCell>
                <mxCell id="d1XyCpcThGXRjQN6B1KP-30" value="" style="endArrow=none;html=1;rounded=0;fontSize=19;entryX=0.5;entryY=0;entryDx=0;entryDy=0;exitX=0.5;exitY=1;exitDx=0;exitDy=0;" edge="1" parent="uz75ES0rGtJtOTAgmC8l-1" source="d1XyCpcThGXRjQN6B1KP-22" target="d1XyCpcThGXRjQN6B1KP-29">
                    <mxGeometry width="50" height="50" relative="1" as="geometry">
                        <mxPoint x="520" y="318" as="sourcePoint"/>
                        <mxPoint x="924" y="420" as="targetPoint"/>
                    </mxGeometry>
                </mxCell>
                <mxCell id="d1XyCpcThGXRjQN6B1KP-31" value="②" style="whiteSpace=wrap;html=1;aspect=fixed;fontSize=21;" vertex="1" parent="uz75ES0rGtJtOTAgmC8l-1">
                    <mxGeometry x="70" y="-34" width="44" height="44" as="geometry"/>
                </mxCell>
                <mxCell id="d1XyCpcThGXRjQN6B1KP-32" value="" style="endArrow=none;html=1;rounded=0;fontSize=19;entryX=0.5;entryY=1;entryDx=0;entryDy=0;" edge="1" parent="uz75ES0rGtJtOTAgmC8l-1" source="d1XyCpcThGXRjQN6B1KP-4" target="d1XyCpcThGXRjQN6B1KP-31">
                    <mxGeometry width="50" height="50" relative="1" as="geometry">
                        <mxPoint x="-130" y="126" as="sourcePoint"/>
                        <mxPoint x="124" y="246" as="targetPoint"/>
                    </mxGeometry>
                </mxCell>
                <mxCell id="d1XyCpcThGXRjQN6B1KP-33" value="⑫" style="whiteSpace=wrap;html=1;aspect=fixed;fontSize=21;" vertex="1" parent="uz75ES0rGtJtOTAgmC8l-1">
                    <mxGeometry x="250" y="490" width="44" height="44" as="geometry"/>
                </mxCell>
                <mxCell id="d1XyCpcThGXRjQN6B1KP-34" value="" style="endArrow=none;html=1;rounded=0;fontSize=19;entryX=0.5;entryY=0;entryDx=0;entryDy=0;exitX=0.5;exitY=1;exitDx=0;exitDy=0;" edge="1" parent="uz75ES0rGtJtOTAgmC8l-1" source="d1XyCpcThGXRjQN6B1KP-24" target="d1XyCpcThGXRjQN6B1KP-33">
                    <mxGeometry width="50" height="50" relative="1" as="geometry">
                        <mxPoint x="366" y="430" as="sourcePoint"/>
                        <mxPoint x="768" y="430" as="targetPoint"/>
                    </mxGeometry>
                </mxCell>
                <mxCell id="d1XyCpcThGXRjQN6B1KP-35" value="③" style="whiteSpace=wrap;html=1;aspect=fixed;fontSize=21;" vertex="1" parent="uz75ES0rGtJtOTAgmC8l-1">
                    <mxGeometry x="-80" y="140" width="44" height="44" as="geometry"/>
                </mxCell>
                <mxCell id="d1XyCpcThGXRjQN6B1KP-36" value="" style="endArrow=none;html=1;rounded=0;fontSize=19;entryX=1;entryY=0.5;entryDx=0;entryDy=0;exitX=0.009;exitY=0.758;exitDx=0;exitDy=0;exitPerimeter=0;" edge="1" parent="uz75ES0rGtJtOTAgmC8l-1" source="d1XyCpcThGXRjQN6B1KP-5" target="d1XyCpcThGXRjQN6B1KP-35">
                    <mxGeometry width="50" height="50" relative="1" as="geometry">
                        <mxPoint x="77.32027649769589" y="184" as="sourcePoint"/>
                        <mxPoint x="124" y="304.5" as="targetPoint"/>
                    </mxGeometry>
                </mxCell>
                <mxCell id="d1XyCpcThGXRjQN6B1KP-37" value="④" style="whiteSpace=wrap;html=1;aspect=fixed;fontSize=21;" vertex="1" parent="uz75ES0rGtJtOTAgmC8l-1">
                    <mxGeometry x="-80" y="190" width="44" height="44" as="geometry"/>
                </mxCell>
                <mxCell id="d1XyCpcThGXRjQN6B1KP-38" value="" style="endArrow=none;html=1;rounded=0;fontSize=19;entryX=1;entryY=0.5;entryDx=0;entryDy=0;exitX=0;exitY=0.75;exitDx=0;exitDy=0;" edge="1" parent="uz75ES0rGtJtOTAgmC8l-1" source="d1XyCpcThGXRjQN6B1KP-7" target="d1XyCpcThGXRjQN6B1KP-37">
                    <mxGeometry width="50" height="50" relative="1" as="geometry">
                        <mxPoint x="144.92599999999993" y="199.0139999999999" as="sourcePoint"/>
                        <mxPoint x="124" y="354.5" as="targetPoint"/>
                    </mxGeometry>
                </mxCell>
                <mxCell id="d1XyCpcThGXRjQN6B1KP-39" value="⑤" style="whiteSpace=wrap;html=1;aspect=fixed;fontSize=21;" vertex="1" parent="uz75ES0rGtJtOTAgmC8l-1">
                    <mxGeometry x="-80" y="240" width="44" height="44" as="geometry"/>
                </mxCell>
                <mxCell id="d1XyCpcThGXRjQN6B1KP-40" value="" style="endArrow=none;html=1;rounded=0;fontSize=19;entryX=1;entryY=0.5;entryDx=0;entryDy=0;exitX=0;exitY=0.75;exitDx=0;exitDy=0;" edge="1" parent="uz75ES0rGtJtOTAgmC8l-1" source="d1XyCpcThGXRjQN6B1KP-9" target="d1XyCpcThGXRjQN6B1KP-39">
                    <mxGeometry width="50" height="50" relative="1" as="geometry">
                        <mxPoint x="144.92599999999993" y="249.0139999999999" as="sourcePoint"/>
                        <mxPoint x="124" y="404.5" as="targetPoint"/>
                    </mxGeometry>
                </mxCell>
                <mxCell id="d1XyCpcThGXRjQN6B1KP-41" value="⑥" style="whiteSpace=wrap;html=1;aspect=fixed;fontSize=21;" vertex="1" parent="uz75ES0rGtJtOTAgmC8l-1">
                    <mxGeometry x="-80" y="290" width="44" height="44" as="geometry"/>
                </mxCell>
                <mxCell id="d1XyCpcThGXRjQN6B1KP-42" value="" style="endArrow=none;html=1;rounded=0;fontSize=19;entryX=1;entryY=0.5;entryDx=0;entryDy=0;exitX=0;exitY=0.75;exitDx=0;exitDy=0;" edge="1" parent="uz75ES0rGtJtOTAgmC8l-1" source="d1XyCpcThGXRjQN6B1KP-14" target="d1XyCpcThGXRjQN6B1KP-41">
                    <mxGeometry width="50" height="50" relative="1" as="geometry">
                        <mxPoint x="144.92599999999993" y="299.0139999999999" as="sourcePoint"/>
                        <mxPoint x="124" y="454.5" as="targetPoint"/>
                    </mxGeometry>
                </mxCell>
                <mxCell id="d1XyCpcThGXRjQN6B1KP-43" value="⑦" style="whiteSpace=wrap;html=1;aspect=fixed;fontSize=21;" vertex="1" parent="uz75ES0rGtJtOTAgmC8l-1">
                    <mxGeometry x="-80" y="340" width="44" height="44" as="geometry"/>
                </mxCell>
                <mxCell id="d1XyCpcThGXRjQN6B1KP-44" value="" style="endArrow=none;html=1;rounded=0;fontSize=19;entryX=1;entryY=0.5;entryDx=0;entryDy=0;exitX=0;exitY=1;exitDx=0;exitDy=0;" edge="1" parent="uz75ES0rGtJtOTAgmC8l-1" source="d1XyCpcThGXRjQN6B1KP-12" target="d1XyCpcThGXRjQN6B1KP-43">
                    <mxGeometry width="50" height="50" relative="1" as="geometry">
                        <mxPoint x="144.92599999999993" y="349.0139999999999" as="sourcePoint"/>
                        <mxPoint x="124" y="504.5" as="targetPoint"/>
                    </mxGeometry>
                </mxCell>
                <mxCell id="d1XyCpcThGXRjQN6B1KP-45" value="⑧" style="whiteSpace=wrap;html=1;aspect=fixed;fontSize=21;" vertex="1" parent="uz75ES0rGtJtOTAgmC8l-1">
                    <mxGeometry x="-80" y="390" width="44" height="44" as="geometry"/>
                </mxCell>
                <mxCell id="d1XyCpcThGXRjQN6B1KP-46" value="" style="endArrow=none;html=1;rounded=0;fontSize=19;entryX=1;entryY=0.5;entryDx=0;entryDy=0;exitX=0;exitY=1;exitDx=0;exitDy=0;" edge="1" parent="uz75ES0rGtJtOTAgmC8l-1" source="d1XyCpcThGXRjQN6B1KP-17" target="d1XyCpcThGXRjQN6B1KP-45">
                    <mxGeometry width="50" height="50" relative="1" as="geometry">
                        <mxPoint x="144.92599999999993" y="399.0139999999999" as="sourcePoint"/>
                        <mxPoint x="124" y="554.5" as="targetPoint"/>
                    </mxGeometry>
                </mxCell>
                <mxCell id="d1XyCpcThGXRjQN6B1KP-47" value="&lt;span style=&quot;font-size: 19px&quot;&gt;削除&lt;/span&gt;" style="rounded=1;whiteSpace=wrap;html=1;align=center;labelBackgroundColor=none;fillColor=#d5e8d4;strokeColor=#82b366;" vertex="1" parent="uz75ES0rGtJtOTAgmC8l-1">
                    <mxGeometry x="380" y="400" width="130" height="34" as="geometry"/>
                </mxCell>
                <mxCell id="d1XyCpcThGXRjQN6B1KP-48" value="⑬" style="whiteSpace=wrap;html=1;aspect=fixed;fontSize=21;" vertex="1" parent="uz75ES0rGtJtOTAgmC8l-1">
                    <mxGeometry x="400" y="490" width="44" height="44" as="geometry"/>
                </mxCell>
                <mxCell id="d1XyCpcThGXRjQN6B1KP-49" value="" style="endArrow=none;html=1;rounded=0;fontSize=19;entryX=0.5;entryY=0;entryDx=0;entryDy=0;exitX=0.5;exitY=1;exitDx=0;exitDy=0;" edge="1" parent="uz75ES0rGtJtOTAgmC8l-1" source="d1XyCpcThGXRjQN6B1KP-47" target="d1XyCpcThGXRjQN6B1KP-48">
                    <mxGeometry width="50" height="50" relative="1" as="geometry">
                        <mxPoint x="516" y="430" as="sourcePoint"/>
                        <mxPoint x="918" y="430" as="targetPoint"/>
                    </mxGeometry>
                </mxCell>
                <mxCell id="d1XyCpcThGXRjQN6B1KP-50" value="" style="shape=image;verticalLabelPosition=bottom;labelBackgroundColor=#ffffff;verticalAlign=top;aspect=fixed;imageAspect=0;image=data:image/png,iVBORw0KGgoAAAANSUhEUgAAAWUAAAA3CAYAAADUtFvzAAAMSElEQVR4Ae2dvW4UzRKGfUFwE8AVIG4AkSMiAsRdOEMiRCIiICLAKQEJCQQEOCAhICAh36PXR49VX7l6pntmvTvGb7DqmZ7u+uuqZ8prfk7+/v2788cxcA44B5wD28iBEx/ENg7C5+BzcA44B5QDhrJ/UvBPSs4B58CGcsBQ3tBhuFNyp+QccA4YyoayuyTngHNgQzlgKG/oMNwluUtyDjgHDGVD2V2Sc8A5sKEcMJQ3dBjuktwlOQecA4ayoewuyTngHNhQDhjKGzoMd0nukpwDzgFD2VB2l+QccA5sKAcuoXx+fr47PT3dPX/+3B/H4Gg5oBxULrpjdMd4W3PgEsoqhrOzs92fP3/8cQyOlgPKQeXibS1I++2X0SWU1SEbyH4hbSEHlIuGk+F0W3PAUHZXvLmXsaFsIN9WIMtvQ9lQNpQ39Eue2wwj+/7/l7GhbCgbyoayvy7aUA4YyoayobyhgnS36K9uDGVD2VA2lN0pbygHDGVD2VDeUEG6U3anbCgbyrNQfvXq1e7+/fu7Hz9+zK7dxx+pO9afvnj9+vXuwYMHu58/f7pz9IvqaDlgKDeg/OLFi93jx493v379OgiIIswEwTt37uw+f/48pPvDhw9X4ClZJycn//lonWRLR3zW8reCciU3ytL1Eh8Uhzkof/z48Qo8BdSsX+u+fPmyu3v37n+ePXnyZPf79+8rRVdBuZKb9Ui+9PR2udItG16+fNm9B9n4I9+Y89jXXY/EXefeypNWvPUy10t9yblGmauh3FOcOYm5P2T3FaE3d41PLUhN7RfM1/ill4D0LtH97t27CxDKhspGZAvK+bnmWjpbUJ7yU/KuC8rv37+/AG0r+Sm+ClyaaxVbC8pT3bPkjUJZBSjbW3bEAs3XhvLfixegcm/kRag4khetvImxrnIhPq+utWdJLmRZq6Gci7vnHji0INAj47rWCCZ6aczZJlBV0BmBsr4OUHLxkuod52AoObIvx4i433QoK4kFQ/mpQshJTfFtGcpLil5+TkFZsCGHWnAgNqxbOubYjrxk1FE+evRoGKqcs2KwNSgT1x7g40drPAqUgdEc+DJUrvu+F8iyYx9Qzv4AzbVxiV+9yM5cePJz7usLzijv5YUguVxnP3QvHdVLq1qb5+a+viCZIwgEuWyrwAHE4rPYofIjZ3yua7rjOXhKRwuA2FmN2JXhVq2NsMXOuA/fIxCW2oV+dEY9PMvjKJAkU37Ec4gyiQ2+LhkVkyhT1yN2zp17lr023lHeUaFc/ZhdQaTnUJYCACCgtxeIWl/pHOmU0c3IS0Ejc2tH2VnFWVB++PBh1y/vJCMDuJqLth4CyjGRVUQRSjxTgasr6/nlXVWI1RyyNVbF2AJ9Tx6zhpdC1KVrgCW9QKZaiw1al2VM3U/JbO1jj2LVWpPnZZd8HdmDDMVgS50y/lf5h80j41GgTJemwo6FvPQ6doZLZGi/EqSCV0uebN8nlIlJ70uhF+CyM/qlbvzp06e7N2/eXIGyZMa1+F4BuJpjvcZjQ1mF8uzZs93bt2+vQFlAqAqoAnA1FwtMspZ0ypIRARtlTl2zR9+rq9NsdZtLoay4VJCfsgldI4AFZKO6iFsvlNHDy27pOHXGa3KgiutRoNwCWizqeM2P9RUw1hQ/INRByaaoc+665YNszF3lnCz8kx3qXnPi4He0lxfC169fJ+2Oe5Ar+759+3bxvTlzjFUcNJd9quain2vOpffri5jQwAo/NKrgv3//fgGuOK/rCiAVgKu5qHdtQQqCLbBGPVxHP6sXS14n+5ibG7VWsRnZI5nYNLpvjb5eKEefAfRU3Fg/d+6sG5HJnrnx4FAGQLnIY0Hna/YAJ57zvWcFEtZUI/JioY7KkC2AMeoYhXK2JduRoSrYRX1caz760xMrdOe1yGQEwOquOTfNRX3VdRUfZE6NU1CmkNGXC6zq2noLh0JUd00Hpzl0tcapLmquAAGa9Myt1XP8z37nvZI7Aq7eGGU9useHUShzVpUvmmvFe26+kic7R3wkF2Rj5TNz8Tywi9xhzeh4cCgDmTkQxKKt4AGQR+SwR8EDLsAswzDqr66lFxnxeWs+ruE62lPBVrI46F4/c6x64IkOjdmOaEP8akXz8T7rxccl4xSUSfBcYD3wjH5mgEQIxM5V8/E+68WeNaN09IAdiMmPbH/Wr+c9Mtm3FKzav2avfB+F2OgLBx9Hzk75FM8dGXkkbzTq2YiOLIv7g0NZxTzaQVHwgBOY9YIqgimDdAmUsSfLEoBkUzUPnGQLfmht5QM2SQ5fM1TrkBlHbMvriRm6tae1Vs+ImeToOvuk+Qhl9uS5aFvv9RIok9CAK3aeU4UCzFVUus6A0Hwuzt6CxSagFV8K1XXWw35GbO2FcvYFOdU4CvEoA//mXhRxD9fa0+MP6zUeAsrVuUcbsEMvPp1LfDaaH3Gvrg8K5SVdsgo5AoXr3NHlggc4OvCplwAAjLDKsvI9NlQAEqwywNiP/9U+1gBD/MOPDFnW57G1Hpujn621WWaGcmuf/Lt3797w30TM+g4J5VgQKqYIshbMe6HAC6IHOgA3Fzj2AT798lIgmANg9gU5rXENlPFzzqZKN361/G7tUY1pb/W8Ndc6T+zHhta6LLcFbsUh5lHeN3d/MCgDhRawcmHG+30Ve5TJ9RIoT+1pQRmQTfmPXIAsG9m3BMrEXFDo/VQvjAxl5EbAL7GVM8jjKJQpql4fta7qSjPIkEuxUkw9RcuaSg9yesco69OnT91QHtENHJeAVX4IUPpknxS7ap51xLhag03VuY58NYMu4ljpwgd0zUEVu6t4aW6Jfdh5ECjTIU51rLkw472AVMEirll6DQgzYFrygGTLlwrK7NGBR+BmHZWf7F0C5Sx/6X2GMjGrfNFcKza9+kehTDKvHTOUVVw6syWFR9FmoC+xUTIockBV2RRlCzwjUAZYI3uiPtmT92LrVAyIUwal9rRij9xegEY7pSfris97r2VfC9zYN3dGLV3XDmUVtII31SFOFStArwAwta/3GYDphTL+tNZnKNNVKgZzPlRQ7vWDdS2IE8cId2ybe+HJ13h+2Ud0a0T/nMy4J1+vgTIFEQuPws/QyEWRC00yWoU3BzGeRzuyvp57/AFs3M8VvPSO6kb26D75QYyjXZIzF/MqTtVcjBV2oot71RhxiuvjdY9NcX11ja8tXXPPK5lx7tqgDOwUqBbAcjHme6ARQZLXrL3Hzh4bWTsFnAgsyZT/vZ0j4JySP+ev9Eed2ABUFVOBU3K4Zk3LTj2P+3WtuZYta8+tB8oqLvlJB6kC0T0QVWGouJXsXLOGPbEQdK3ncb+uW4WHXK1pQYzilF1TcrId8V7A0ffI+AKAAFJcG68zfHTfY8Mam2UT8YuxjHb1Xmu/4lb5qWetM8x+Z33Er3VmeX11H/2snmuu8r9X516hDFQUTH2mCrdV0MwDwDUykDU19uqRHfJpDphAkRjMra9syzKQlccIUTpU5vBLsiodI3PyHShLHtdTMsiFJfqnoEwXRVGqQBSX3oRvFVEuJMkDMFN7eoocm/P5VfdzOtFXwSraGeEqPepYtTeumbpu2SzYTO3jPDifqbVzz/A1x2kuRnNyW75lPbrPutjbk29aE2VK1pxter4aysAA5WshuqaYpyDRega8puzGxx7AaI1i0QOulk1L5mV/9QLQPGfTO2oPPrNHftEBK2Y9NrJ+KraVnCkoCwrVj8Sax9beUXsoMvaokADaHPgoMNbPAYv1a0ZA1WvbGl3e2/fvNO87TquhXBWV5/50QctxquM0BeV9F4DlHQc8jns77oZy438eMTBrYB4iLoZyu2ANs38/Noayoby5rt5Q/vfB45dL+4wNZUPZUPZ/Etr1CyiDtA3SfcbGUDaUDWVD2VDeUA4Yyoayobyhgtxnx2VZh+ls9x1nQ9lQNpQNZXfKG8oBQ9lQNpQ3VJD77ros7+Z1y4ayoWwoG8rulDeUA4ayoWwob6gg3dnevM5232d2CeXT09Pd2dnZ5gr0EH9ZwTqO9xdFcuyVg8rFfSe65Rl2NyUHLqF8fn5+UQz6g/v+OAbHygEBWbl4UwrIdhr2+86BSyjvW7DlOVmdA84B58B4DhjK/j7RXalzwDmwoRwwlDd0GO4qxrsKx8wx+9dywFA2lN0lOQecAxvKAUN5Q4fxr73x7Y+7WOfAeA78D5MhNWYXDhPFAAAAAElFTkSuQmCC;" vertex="1" parent="uz75ES0rGtJtOTAgmC8l-1">
                    <mxGeometry x="450" y="124" width="168.79" height="26" as="geometry"/>
                </mxCell>
                <mxCell id="d1XyCpcThGXRjQN6B1KP-51" value="⑩" style="whiteSpace=wrap;html=1;aspect=fixed;fontSize=21;" vertex="1" parent="uz75ES0rGtJtOTAgmC8l-1">
                    <mxGeometry x="466" y="-23" width="44" height="44" as="geometry"/>
                </mxCell>
                <mxCell id="d1XyCpcThGXRjQN6B1KP-52" value="" style="endArrow=none;html=1;rounded=0;fontSize=19;entryX=0.5;entryY=1;entryDx=0;entryDy=0;exitX=0.25;exitY=0;exitDx=0;exitDy=0;" edge="1" parent="uz75ES0rGtJtOTAgmC8l-1" target="d1XyCpcThGXRjQN6B1KP-51">
                    <mxGeometry width="50" height="50" relative="1" as="geometry">
                        <mxPoint x="488.1975000000002" y="124" as="sourcePoint"/>
                        <mxPoint x="650" y="129" as="targetPoint"/>
                    </mxGeometry>
                </mxCell>
                <mxCell id="d1XyCpcThGXRjQN6B1KP-0" value="名称未設定レイヤ" parent="uz75ES0rGtJtOTAgmC8l-0"/>
                <mxCell id="d1XyCpcThGXRjQN6B1KP-1" value="名称未設定レイヤ" parent="uz75ES0rGtJtOTAgmC8l-0"/>
            </root>
        </mxGraphModel>
    </diagram>
</mxfile>